<?xml version="1.0" encoding="UTF-8"?>
<svg id="Layer_1" data-name="Layer 1" xmlns="http://www.w3.org/2000/svg" viewBox="0 0 256 307.96">
  <defs>
    <style>
      .cls-1 {
      font-family: 'Fira Sans';
      font-weight: 900;
      font-style: italic;
      font-size: 256px;
        fill: #3f3fa7;
      }

      .cls-2 {
      fill: blue;
      stroke-width: 0px;
      }
    </style>
  </defs>
  <text class="cls-1" transform="translate(0 217.09)">
    <tspan x="0" y="0">{{INITIAL}}</tspan>
  </text>
  <path class="cls-2"
    d="m173.3,152.41l-20.07-9.66c-2.32-1.12-5.1-.65-6.93,1.18l-38.43,35.06-16.74-12.71c-1.56-1.18-3.74-1.08-5.18.23l-5.37,4.88c-1.66,1.51-1.78,4.08-.27,5.74.09.09.18.18.27.27l14.52,13.24-14.52,13.24c-1.66,1.51-1.78,4.08-.27,5.74.09.09.18.18.27.27l5.38,4.88c1.45,1.32,3.63,1.41,5.18.23l16.74-12.71,38.43,35.06c1.82,1.83,4.6,2.3,6.92,1.18l20.08-9.66c2.11-1.02,3.45-3.15,3.45-5.49v-65.5c0-2.34-1.34-4.48-3.45-5.49Zm-20.91,60.38l-29.16-22.13,29.16-22.13v44.27Z" />
</svg>